Coordinates
version=1
nRows=11
nColumns=63
inDegrees=yes

Units are S.I. units (second, meters, Newtons, ...)
If the header above contains a line with 'inDegrees', this indicates whether rotational values are in degrees (yes) or radians (no).

endheader
time	pelvis_tilt	pelvis_list	pelvis_rotation	pelvis_tx	pelvis_ty	pelvis_tz	hip_flexion_r	hip_adduction_r	hip_rotation_r	knee_angle_r	knee_angle_r_beta	ankle_angle_r	subtalar_angle_r	mtp_angle_r	hip_flexion_l	hip_adduction_l	hip_rotation_l	knee_angle_l	knee_angle_l_beta	ankle_angle_l	subtalar_angle_l	mtp_angle_l	L5_S1_Flex_Ext	L5_S1_Lat_Bending	L5_S1_axial_rotation	L4_L5_Flex_Ext	L4_L5_Lat_Bending	L4_L5_axial_rotation	L3_L4_Flex_Ext	L3_L4_Lat_Bending	L3_L4_axial_rotation	L2_L3_Flex_Ext	L2_L3_Lat_Bending	L2_L3_axial_rotation	L1_L2_Flex_Ext	L1_L2_Lat_Bending	L1_L2_axial_rotation	L1_T12_Flex_Ext	L1_T12_Lat_Bending	L1_T12_axial_rotation	Abs_r3	Abs_r2	Abs_r1	Abs_t1	Abs_t2	neck_flexion	neck_bending	neck_rotation	arm_flex_r	arm_add_r	arm_rot_r	elbow_flex_r	pro_sup_r	wrist_flex_r	wrist_dev_r	arm_flex_l	arm_add_l	arm_rot_l	elbow_flex_l	pro_sup_l	wrist_flex_l	wrist_dev_l
      0.00000000	      0.54308987	     -5.10804515	    101.02029967	      0.28016665	      0.90195232	      0.70646262	      0.85702988	      2.85761909	    -14.25814735	     10.23947562	      0.17871256	     35.65373126	     16.02405060	      0.00000000	      2.87770098	     -1.80259339	      5.91063593	     11.46107801	      0.20003355	     34.87909878	     -2.29944122	      0.00000000	      0.13738672	      0.27039984	     -1.03614213	      0.25514088	      0.35963178	     -1.10090101	      0.22571264	      0.65745016	     -1.10090101	      0.15701928	      0.65745016	     -0.90662436	      0.12757731	      0.55139934	     -0.84186548	      0.07850277	      0.41884934	     -0.77710660	      0.98133961	      3.05881702	     -5.76271167	      0.00000000	      0.00000000	     26.92639048	      2.32338618	      2.45532209	     15.56654617	    -12.74781011	     61.19452272	     53.02075431	     19.35366049	      6.00760776	     -3.32495024	      6.22741146	     -8.72507916	     29.56197972	     58.68105978	     65.95243056	      3.75976019	      5.43244634
      0.01694915	      0.42560160	     -4.89511248	     99.83766979	      0.28237603	      0.90245315	      0.70655454	      0.81989083	      2.80420795	    -12.56017589	     10.45656726	      0.18250153	     35.84568898	     15.29938551	      0.00000000	      2.37474236	     -1.74833090	      5.60311498	     11.25646105	      0.19646231	     34.70244730	     -3.45422303	      0.00000000	      0.11278969	      0.25828095	     -0.60820794	      0.20946174	      0.34351366	     -0.64622093	      0.18530219	      0.62798430	     -0.64622093	      0.12890734	      0.62798430	     -0.53218194	      0.10473651	      0.52668651	     -0.49416895	      0.06444803	      0.40007719	     -0.45615595	      0.80564551	      2.92172573	     -3.38267008	      0.00000000	      0.00000000	     26.74486473	      2.45528310	      1.46955846	     12.99792104	    -12.43046473	     55.96057748	     53.26233506	     26.22893530	      4.33496235	      0.23164530	      7.08155644	     -8.89488497	     31.70445195	     57.53260564	     67.39105002	      3.54805509	      4.87022867
      0.03389831	      0.31840975	     -4.77660227	     98.79158467	      0.28424641	      0.90282903	      0.70660969	      0.84770410	      2.73802430	    -11.08386625	     10.62878484	      0.18550729	     36.02036587	     14.82127719	      0.00000000	      2.01766728	     -1.71645413	      4.89503191	     11.07591032	      0.19331110	     34.65071784	     -3.76088660	      0.00000000	      0.09770331	      0.24514882	     -0.26052395	      0.18144482	      0.32604793	     -0.27680670	      0.16051677	      0.59605485	     -0.27680670	      0.11166511	      0.59605485	     -0.22795846	      0.09072729	      0.49990748	     -0.21167571	      0.05582767	      0.37973553	     -0.19539296	      0.69788497	      2.77317252	     -1.44895607	      0.00000000	      0.00000000	     26.59541801	      2.58596758	      0.69656139	     11.64076202	    -12.23137010	     53.24131102	     53.29523485	     30.45368800	      3.70292505	      2.05844312	      7.66115419	     -9.02098779	     33.24633216	     56.79504101	     68.01931691	      3.59711954	      4.75268853
      0.05084746	      0.29952136	     -4.73770317	     98.63761042	      0.28490612	      0.90321006	      0.70696738	      0.87597111	      2.72433045	    -10.92768971	     10.66090626	      0.18606792	     36.07762818	     14.84787991	      0.00000000	      1.95996757	     -1.73124546	      4.73554829	     11.04912481	      0.19284361	     34.68121307	     -3.83966893	      0.00000000	      0.09338246	      0.24077517	     -0.19216870	      0.17342057	      0.32023097	     -0.20417925	      0.15341805	      0.58542074	     -0.20417925	      0.10672682	      0.58542074	     -0.16814761	      0.08671495	      0.49098872	     -0.15613707	      0.05335874	      0.37296073	     -0.14412653	      0.66702159	      2.72369684	     -1.06878467	      0.00000000	      0.00000000	     26.52664905	      2.77425384	      0.62413567	     11.64951856	    -12.09517800	     53.49007789	     52.85463919	     30.74626264	      3.59914269	      2.34384339	      7.79950706	     -9.06169814	     33.65662663	     56.38827759	     68.13145255	      3.66356498	      5.00668783
      0.06779661	      0.15082797	     -4.69271766	     97.67159496	      0.28660847	      0.90355010	      0.70703793	      0.97133765	      2.64325767	     -9.27343971	     10.81454906	      0.18874949	     36.03069652	     14.10877901	      0.00000000	      1.69974365	     -1.69545258	      3.22869316	     10.83961115	      0.18918690	     34.67041400	     -3.15465215	      0.00000000	      0.07845756	      0.21752732	      0.07330992	      0.14570354	      0.28931133	      0.07789179	      0.12889793	      0.52889591	      0.07789179	      0.08966915	      0.52889591	      0.06414618	      0.07285569	      0.44358170	      0.05956431	      0.04483065	      0.33694981	      0.05498244	      0.56041454	      2.46071249	      0.40772779	      0.00000000	      0.00000000	     26.48374210	      2.79250052	      0.03799726	     11.52840719	    -12.10324309	     53.08727933	     52.72954305	     32.24478261	      3.71190081	      2.44381514	      8.31704318	     -9.33190514	     34.97460533	     56.12959041	     66.92358311	      3.98747169	      5.44518011
      0.08474576	      0.14194831	     -4.70274633	     97.59766441	      0.28703700	      0.90383743	      0.70727332	      0.96549681	      2.74161917	     -8.20797517	     10.64309434	      0.18575704	     35.85025743	     13.04242568	      0.00000000	      1.74955656	     -1.76828537	      2.49649179	     10.88568144	      0.18999098	     34.78719718	     -2.29431052	      0.00000000	      0.07522774	      0.21189871	      0.11097039	      0.13970544	      0.28182528	      0.11790603	      0.12359166	      0.51521052	      0.11790603	      0.08597779	      0.51521052	      0.09709909	      0.06985648	      0.43210385	      0.09016344	      0.04298513	      0.32823110	      0.08322779	      0.53734424	      2.39704059	      0.61718399	      0.00000000	      0.00000000	     26.47083961	      2.83905015	     -0.09917044	     11.74595624	    -12.07052859	     53.20546203	     52.54043458	     32.93238151	      3.63813076	      2.53407870	      8.44985487	     -9.45379488	     35.48322052	     56.07565304	     65.39189348	      4.01099137	      5.65601836
      0.10169492	      0.09512746	     -4.75120536	     96.91779394	      0.28783177	      0.90408463	      0.70772258	      1.19856143	      2.59573618	     -8.27023812	     10.84571452	      0.18929343	     36.03371949	     14.23143756	      0.00000000	      1.71172775	     -1.75702387	      1.43987629	     10.78960107	      0.18831406	     34.76160274	     -1.82442463	      0.00000000	      0.07603707	      0.20468681	      0.26844430	      0.14120844	      0.27223346	      0.28522207	      0.12492130	      0.49767551	      0.28522207	      0.08690277	      0.49767551	      0.23488876	      0.07060802	      0.41739734	      0.21811099	      0.04344758	      0.31705987	      0.20133322	      0.54312518	      2.31545814	      1.49300665	      0.00000000	      0.00000000	     26.38831511	      2.52405366	     -0.71522660	     12.26007332	    -12.26861302	     54.35283764	     52.17238966	     31.30047813	      4.60890119	      1.28674728	      8.69190233	     -9.31047597	     35.62697745	     55.76493815	     64.80525471	      4.68517308	      5.93363315
      0.11864407	      0.16588054	     -4.74762207	     97.23541389	      0.28739011	      0.90431319	      0.70840750	      1.24242742	      2.62698746	     -8.91628543	     10.76588435	      0.18790013	     36.13499043	     14.91148641	      0.00000000	      1.87292322	     -1.88312871	      1.06052835	     10.94703248	      0.19106176	     34.88085494	     -0.88878171	      0.00000000	      0.07263273	      0.21358286	      0.17876349	      0.13488625	      0.28406520	      0.18993621	      0.11932832	      0.51930535	      0.18993621	      0.08301195	      0.51930535	      0.15641805	      0.06744676	      0.43553816	      0.14524534	      0.04150234	      0.33083984	      0.13407262	      0.51880836	      2.41609197	      0.99422891	      0.00000000	      0.00000000	     26.29237212	      2.61381577	     -0.47177565	     12.72423150	    -12.33123824	     55.16712025	     52.02884683	     30.48114351	      4.68636050	      1.02911935	      8.67730038	     -9.17489214	     35.24176410	     55.68078194	     63.86399798	      4.95561720	      6.09691991
      0.13559322	      0.29008749	     -4.73930182	     97.22065908	      0.28719469	      0.90451937	      0.70912487	      1.32649521	      2.75932272	     -8.67213230	     10.71275746	      0.18697289	     36.16054069	     14.83489211	      0.00000000	      1.96115555	     -2.04646778	      0.53917660	     11.03348537	      0.19257065	     34.93839559	     -0.18324108	      0.00000000	      0.07043607	      0.23305674	      0.18678521	      0.13080683	      0.30996547	      0.19845929	      0.11571943	      0.56665417	      0.19845929	      0.08050139	      0.56665417	      0.16343706	      0.06540694	      0.47524931	      0.15176298	      0.04024717	      0.36100490	      0.14008891	      0.50311783	      2.63638451	      1.03884331	      0.00000000	      0.00000000	     26.16888452	      2.50292332	     -0.41940524	     12.62699877	    -12.41396080	     54.65291162	     52.12453219	     31.45864469	      4.37503158	      1.08813723	      8.88168840	     -8.97703061	     35.36247067	     55.50805039	     62.63989009	      4.74211065	      6.21003974
      0.15254237	      0.32937522	     -4.70821582	     97.34161185	      0.28691688	      0.90475212	      0.70982577	      1.31877672	      2.83809350	     -8.34195542	     10.55349874	      0.18419330	     36.08746916	     14.38700018	      0.00000000	      2.04091244	     -2.10991368	      0.32327530	     11.15153570	      0.19463101	     34.88619771	      0.24353535	      0.00000000	      0.06693257	      0.23991366	      0.15140005	      0.12430048	      0.31908517	      0.16086255	      0.10996352	      0.58332607	      0.16086255	      0.07649723	      0.58332607	      0.13247504	      0.06215358	      0.48923193	      0.12301254	      0.03824527	      0.37162626	      0.11355003	      0.47809266	      2.71395130	      0.84204163	      0.00000000	      0.00000000	     26.03348811	      2.57229334	     -0.29732008	     12.56662406	    -12.40074116	     54.18473553	     52.17991498	     32.39181714	      4.00066198	      1.35049809	      9.03778573	     -8.91377776	     35.43122290	     55.39400015	     61.58783865	      4.49136776	      6.20585567
      0.16949153	      0.56018786	     -4.70640451	     97.95093949	      0.28555098	      0.90492456	      0.71090886	      1.37694256	      2.97019874	     -9.56351991	     10.47742560	      0.18286557	     36.10313026	     15.16579532	      0.00000000	      2.31340017	     -2.34912826	      0.30007885	     11.39305183	      0.19884627	     34.98305391	      1.07940172	      0.00000000	      0.07070975	      0.27563148	      0.07933174	      0.13131507	      0.36658987	      0.08428998	      0.11616905	      0.67017038	      0.08428998	      0.08081417	      0.67017038	      0.06941528	      0.06566107	      0.56206771	      0.06445704	      0.04040355	      0.42695316	      0.05949881	      0.50507266	      3.11799843	      0.44121936	      0.00000000	      0.00000000	     25.89649337	      2.21417556	     -0.40851408	     12.10896563	    -12.62097616	     52.84016780	     52.61358983	     34.52341258	      3.07594451	      1.07288773	      9.38109590	     -8.58263871	     35.69451569	     55.09923623	     61.07501698	      4.09444510	      6.49827860
